<?xml version="1.0" standalone="no"?>
<!DOCTYPE svg PUBLIC "-//W3C//DTD SVG 20010904//EN"
 "http://www.w3.org/TR/2001/REC-SVG-20010904/DTD/svg10.dtd">
<svg version="1.0" xmlns="http://www.w3.org/2000/svg"
 width="640.000000pt" height="640.000000pt" viewBox="0 0 640.000000 640.000000"
 preserveAspectRatio="xMidYMid meet">

<g transform="translate(0.000000,640.000000) scale(0.100000,-0.100000)"
fill="#000000" stroke="none">
<path d="M5023 5410 c-46 -27 -62 -84 -38 -134 23 -47 32 -52 158 -76 205 -40
320 -94 467 -221 180 -154 290 -351 324 -577 15 -101 34 -136 82 -152 63 -21
128 15 140 76 9 49 -12 171 -47 279 -139 419 -481 722 -912 806 -121 24 -134
24 -174 -1z"/>
<path d="M5018 4970 c-81 -64 -50 -165 60 -196 139 -38 220 -85 305 -178 48
-53 102 -160 117 -232 8 -35 22 -67 40 -87 24 -27 35 -32 74 -32 36 0 51 6 75
29 26 25 31 37 31 77 0 60 -32 165 -78 254 -26 51 -63 97 -137 171 -84 84
-114 107 -185 141 -144 70 -256 90 -302 53z"/>
<path d="M4903 4521 c-41 -11 -112 -53 -140 -83 -64 -70 -88 -182 -59 -283 23
-77 98 -154 175 -180 116 -38 240 -4 314 88 117 143 71 349 -95 433 -52 26
-143 38 -195 25z"/>
<path d="M520 3060 l0 -900 2085 0 2085 0 0 900 0 900 -2085 0 -2085 0 0 -900z
m430 74 l0 -564 320 0 321 0 -3 -75 -3 -75 -408 -3 -407 -2 0 641 c0 352 2
643 4 645 2 2 43 3 90 1 l86 -3 0 -565z m1025 -74 l0 -642 -87 -2 -88 -2 0
641 c0 353 2 644 4 646 2 2 42 3 88 2 l83 -1 0 -642z m417 507 c26 -73 107
-301 181 -507 74 -206 143 -401 153 -434 l18 -58 31 90 c16 49 111 304 209
566 l180 476 88 0 c91 0 104 -1 101 -10 -1 -3 -116 -290 -256 -638 l-254 -632
-96 -3 -96 -3 -82 216 c-45 118 -149 391 -231 605 -81 215 -155 405 -163 423
-9 18 -13 36 -11 40 2 4 44 6 93 4 l89 -3 46 -132z m2008 58 l0 -75 -375 0
-375 0 0 -195 0 -195 356 0 356 0 -6 -22 c-3 -13 -6 -47 -6 -75 l0 -53 -350 0
-350 0 0 -220 0 -220 390 0 390 0 0 -77 0 -78 -475 0 -475 0 0 645 0 645 460
-3 460 -2 0 -75z"/>
</g>
</svg>
